<svg xmlns="http://www.w3.org/2000/svg" xmlns:xlink="http://www.w3.org/1999/xlink" width="120" zoomAndPan="magnify" viewBox="0 0 90 30.000001" height="40" preserveAspectRatio="xMidYMid meet" version="1.0"><defs><g/><clipPath id="0bfb8ddb95"><path d="M 57 6 L 68.792969 6 L 68.792969 19 L 57 19 Z M 57 6 " clip-rule="nonzero"/></clipPath><clipPath id="0f7cbc2986"><rect x="0" width="69" y="0" height="25"/></clipPath></defs><g transform="matrix(1, 0, 0, 1, 10, 2)"><g clip-path="url(#0f7cbc2986)"><g fill="#171716" fill-opacity="1"><g transform="translate(0.773879, 18.429594)"><g><path d="M 7.921875 -16.8125 C 7.515625 -16.8125 7.164062 -16.664062 6.875 -16.375 C 6.582031 -16.09375 6.4375 -15.753906 6.4375 -15.359375 L 6.4375 -1.59375 C 6.4375 -1.195312 6.582031 -0.851562 6.875 -0.5625 C 7.164062 -0.28125 7.515625 -0.140625 7.921875 -0.140625 L 7.921875 0 L 0.734375 0 L 0.734375 -0.140625 C 1.128906 -0.140625 1.46875 -0.28125 1.75 -0.5625 C 2.039062 -0.851562 2.1875 -1.195312 2.1875 -1.59375 L 2.1875 -15.359375 C 2.1875 -15.753906 2.039062 -16.09375 1.75 -16.375 C 1.46875 -16.664062 1.128906 -16.8125 0.734375 -16.8125 L 0.734375 -16.953125 L 7.921875 -16.953125 Z M 7.921875 -16.8125 "/></g></g></g><g fill="#171716" fill-opacity="1"><g transform="translate(8.039909, 18.429594)"><g><path d="M 11.59375 -1.328125 C 11.59375 -1.035156 11.691406 -0.773438 11.890625 -0.546875 C 12.085938 -0.328125 12.320312 -0.191406 12.59375 -0.140625 L 12.59375 0 L 6.96875 0 L 6.96875 -0.140625 C 7.25 -0.191406 7.484375 -0.328125 7.671875 -0.546875 C 7.867188 -0.773438 7.96875 -1.035156 7.96875 -1.328125 L 7.96875 -8.484375 C 7.96875 -8.898438 8.070312 -9.226562 8.28125 -9.46875 C 8.488281 -9.707031 8.695312 -9.9375 8.90625 -10.15625 C 9.125 -10.375 9.234375 -10.628906 9.234375 -10.921875 C 9.234375 -11.191406 9.078125 -11.398438 8.765625 -11.546875 C 8.460938 -11.691406 8.066406 -11.765625 7.578125 -11.765625 C 7.046875 -11.765625 6.566406 -11.695312 6.140625 -11.5625 C 5.722656 -11.425781 5.421875 -11.3125 5.234375 -11.21875 L 5.234375 -1.328125 C 5.234375 -1.035156 5.328125 -0.773438 5.515625 -0.546875 C 5.710938 -0.328125 5.945312 -0.191406 6.21875 -0.140625 L 6.21875 0 L 0.609375 0 L 0.609375 -0.140625 C 0.878906 -0.191406 1.109375 -0.328125 1.296875 -0.546875 C 1.492188 -0.773438 1.59375 -1.035156 1.59375 -1.328125 L 1.59375 -9.953125 C 1.59375 -10.265625 1.492188 -10.523438 1.296875 -10.734375 C 1.109375 -10.953125 0.878906 -11.085938 0.609375 -11.140625 L 0.609375 -11.28125 L 4.75 -11.890625 C 4.757812 -11.890625 4.769531 -11.890625 4.78125 -11.890625 C 4.789062 -11.890625 4.800781 -11.890625 4.8125 -11.890625 C 5.09375 -11.890625 5.234375 -11.753906 5.234375 -11.484375 L 5.234375 -11.390625 C 5.679688 -11.609375 6.179688 -11.785156 6.734375 -11.921875 C 7.296875 -12.066406 7.859375 -12.140625 8.421875 -12.140625 C 8.992188 -12.140625 9.519531 -12.03125 10 -11.8125 C 10.488281 -11.59375 10.875 -11.242188 11.15625 -10.765625 C 11.445312 -10.285156 11.59375 -9.632812 11.59375 -8.8125 Z M 11.59375 -1.328125 "/></g></g></g><g fill="#171716" fill-opacity="1"><g transform="translate(19.859445, 18.429594)"><g><path d="M 10.421875 -11.109375 C 10.554688 -10.828125 10.640625 -10.507812 10.671875 -10.15625 C 10.710938 -9.8125 10.734375 -9.492188 10.734375 -9.203125 C 10.734375 -7.972656 10.550781 -6.796875 10.1875 -5.671875 C 9.832031 -4.554688 9.359375 -3.5625 8.765625 -2.6875 C 8.171875 -1.8125 7.5 -1.125 6.75 -0.625 C 6 -0.125 5.21875 0.125 4.40625 0.125 C 3.582031 0.125 2.90625 -0.160156 2.375 -0.734375 C 1.851562 -1.304688 1.59375 -2.160156 1.59375 -3.296875 L 1.59375 -9.953125 C 1.59375 -10.265625 1.492188 -10.523438 1.296875 -10.734375 C 1.109375 -10.953125 0.878906 -11.085938 0.609375 -11.140625 L 0.609375 -11.28125 L 4.75 -11.890625 C 4.757812 -11.890625 4.769531 -11.890625 4.78125 -11.890625 C 4.789062 -11.890625 4.800781 -11.890625 4.8125 -11.890625 C 5.09375 -11.890625 5.234375 -11.753906 5.234375 -11.484375 L 5.234375 -3.578125 C 5.234375 -3.179688 5.128906 -2.859375 4.921875 -2.609375 C 4.710938 -2.359375 4.5 -2.125 4.28125 -1.90625 C 4.070312 -1.695312 3.96875 -1.441406 3.96875 -1.140625 C 3.96875 -0.878906 4.09375 -0.664062 4.34375 -0.5 C 4.59375 -0.332031 4.9375 -0.253906 5.375 -0.265625 C 5.613281 -0.296875 5.867188 -0.367188 6.140625 -0.484375 C 6.410156 -0.597656 6.640625 -0.726562 6.828125 -0.875 C 7.148438 -1.101562 7.460938 -1.378906 7.765625 -1.703125 C 8.078125 -2.023438 8.367188 -2.378906 8.640625 -2.765625 C 9.097656 -3.410156 9.472656 -4.113281 9.765625 -4.875 C 10.066406 -5.644531 10.285156 -6.429688 10.421875 -7.234375 C 10.492188 -7.640625 10.492188 -7.96875 10.421875 -8.21875 C 10.347656 -8.46875 10.148438 -8.59375 9.828125 -8.59375 C 9.617188 -8.59375 9.441406 -8.5625 9.296875 -8.5 C 9.148438 -8.445312 8.96875 -8.421875 8.75 -8.421875 C 8.226562 -8.421875 7.78125 -8.609375 7.40625 -8.984375 C 7.039062 -9.359375 6.859375 -9.796875 6.859375 -10.296875 C 6.859375 -10.804688 7.039062 -11.25 7.40625 -11.625 C 7.78125 -12 8.226562 -12.1875 8.75 -12.1875 C 9.113281 -12.1875 9.445312 -12.085938 9.75 -11.890625 C 10.050781 -11.691406 10.273438 -11.429688 10.421875 -11.109375 Z M 10.421875 -11.109375 "/></g></g></g><g fill="#171716" fill-opacity="1"><g transform="translate(30.056189, 18.429594)"><g><path d="M 6.375 -12.140625 C 7.382812 -12.140625 8.304688 -11.863281 9.140625 -11.3125 C 9.972656 -10.757812 10.640625 -10.019531 11.140625 -9.09375 C 11.640625 -8.164062 11.890625 -7.132812 11.890625 -6 C 11.890625 -4.875 11.640625 -3.847656 11.140625 -2.921875 C 10.640625 -1.992188 9.972656 -1.253906 9.140625 -0.703125 C 8.304688 -0.148438 7.382812 0.125 6.375 0.125 C 5.351562 0.125 4.425781 -0.148438 3.59375 -0.703125 C 2.757812 -1.253906 2.09375 -1.992188 1.59375 -2.921875 C 1.09375 -3.847656 0.84375 -4.875 0.84375 -6 C 0.84375 -7.132812 1.09375 -8.164062 1.59375 -9.09375 C 2.09375 -10.019531 2.757812 -10.757812 3.59375 -11.3125 C 4.425781 -11.863281 5.351562 -12.140625 6.375 -12.140625 Z M 6.375 -0.03125 C 7.613281 -0.03125 8.234375 -2.019531 8.234375 -6 C 8.234375 -9.988281 7.613281 -11.984375 6.375 -11.984375 C 5.113281 -11.984375 4.484375 -9.988281 4.484375 -6 C 4.484375 -2.019531 5.113281 -0.03125 6.375 -0.03125 Z M 6.375 -0.03125 "/></g></g></g><g fill="#171716" fill-opacity="1"><g transform="translate(41.415529, 18.429594)"><g><path d="M 1.59375 -1.328125 L 1.59375 -9.953125 C 1.59375 -10.265625 1.492188 -10.523438 1.296875 -10.734375 C 1.109375 -10.953125 0.878906 -11.085938 0.609375 -11.140625 L 0.609375 -11.28125 L 4.75 -11.890625 C 4.757812 -11.890625 4.769531 -11.890625 4.78125 -11.890625 C 4.789062 -11.890625 4.800781 -11.890625 4.8125 -11.890625 C 5.09375 -11.890625 5.234375 -11.753906 5.234375 -11.484375 L 5.234375 -1.328125 C 5.234375 -1.035156 5.328125 -0.773438 5.515625 -0.546875 C 5.710938 -0.328125 5.945312 -0.191406 6.21875 -0.140625 L 6.21875 0 L 0.609375 0 L 0.609375 -0.140625 C 0.878906 -0.191406 1.109375 -0.328125 1.296875 -0.546875 C 1.492188 -0.773438 1.59375 -1.035156 1.59375 -1.328125 Z M 5.296875 -15.0625 C 5.296875 -14.5625 5.109375 -14.125 4.734375 -13.75 C 4.367188 -13.382812 3.929688 -13.203125 3.421875 -13.203125 C 2.898438 -13.203125 2.457031 -13.382812 2.09375 -13.75 C 1.726562 -14.125 1.546875 -14.5625 1.546875 -15.0625 C 1.546875 -15.582031 1.726562 -16.023438 2.09375 -16.390625 C 2.457031 -16.765625 2.898438 -16.953125 3.421875 -16.953125 C 3.929688 -16.953125 4.367188 -16.765625 4.734375 -16.390625 C 5.109375 -16.023438 5.296875 -15.582031 5.296875 -15.0625 Z M 5.296875 -15.0625 "/></g></g></g><g fill="#171716" fill-opacity="1"><g transform="translate(46.864999, 18.429594)"><g><path d="M 0.78125 0 L 0.625 0 C 0.5625 -0.613281 0.664062 -1.210938 0.9375 -1.796875 C 1.21875 -2.390625 1.597656 -2.960938 2.078125 -3.515625 C 2.566406 -4.078125 3.097656 -4.597656 3.671875 -5.078125 C 4.253906 -5.566406 4.816406 -6.003906 5.359375 -6.390625 C 5.921875 -6.816406 6.457031 -7.195312 6.96875 -7.53125 C 7.488281 -7.875 7.953125 -8.207031 8.359375 -8.53125 L 3.3125 -8.53125 C 2.863281 -8.53125 2.53125 -8.460938 2.3125 -8.328125 C 2.09375 -8.203125 1.921875 -8.035156 1.796875 -7.828125 L 1.640625 -7.828125 L 1.640625 -11.234375 C 1.640625 -11.410156 1.707031 -11.5625 1.84375 -11.6875 C 1.988281 -11.820312 2.164062 -11.890625 2.375 -11.890625 L 10.265625 -11.890625 L 10.390625 -11.796875 C 10.367188 -11.054688 10.1875 -10.425781 9.84375 -9.90625 C 9.5 -9.382812 9.035156 -8.890625 8.453125 -8.421875 C 8.046875 -8.097656 7.582031 -7.765625 7.0625 -7.421875 C 6.550781 -7.085938 6.015625 -6.710938 5.453125 -6.296875 C 4.816406 -5.847656 4.164062 -5.332031 3.5 -4.75 C 2.832031 -4.164062 2.253906 -3.550781 1.765625 -2.90625 C 2.085938 -3.257812 2.492188 -3.457031 2.984375 -3.5 C 3.484375 -3.539062 4.015625 -3.492188 4.578125 -3.359375 C 5.140625 -3.222656 5.707031 -3.0625 6.28125 -2.875 C 6.851562 -2.6875 7.394531 -2.519531 7.90625 -2.375 C 8.414062 -2.226562 8.851562 -2.175781 9.21875 -2.21875 C 9.582031 -2.257812 9.828125 -2.441406 9.953125 -2.765625 L 10.09375 -2.734375 C 10.09375 -2.734375 10.070312 -2.625 10.03125 -2.40625 C 10 -2.1875 9.914062 -1.90625 9.78125 -1.5625 C 9.65625 -1.21875 9.472656 -0.863281 9.234375 -0.5 C 9.003906 -0.132812 8.695312 0.191406 8.3125 0.484375 C 7.875 0.742188 7.378906 0.835938 6.828125 0.765625 C 6.273438 0.703125 5.703125 0.554688 5.109375 0.328125 C 4.523438 0.109375 3.957031 -0.0976562 3.40625 -0.296875 C 2.863281 -0.503906 2.363281 -0.609375 1.90625 -0.609375 C 1.664062 -0.609375 1.445312 -0.5625 1.25 -0.46875 C 1.0625 -0.382812 0.90625 -0.226562 0.78125 0 Z M 0.78125 0 "/></g></g></g><g clip-path="url(#0bfb8ddb95)"><g fill="#171716" fill-opacity="1"><g transform="translate(56.480443, 18.429594)"><g><path d="M 6.375 -12.140625 C 7.382812 -12.140625 8.304688 -11.863281 9.140625 -11.3125 C 9.972656 -10.757812 10.640625 -10.019531 11.140625 -9.09375 C 11.640625 -8.164062 11.890625 -7.132812 11.890625 -6 C 11.890625 -4.875 11.640625 -3.847656 11.140625 -2.921875 C 10.640625 -1.992188 9.972656 -1.253906 9.140625 -0.703125 C 8.304688 -0.148438 7.382812 0.125 6.375 0.125 C 5.351562 0.125 4.425781 -0.148438 3.59375 -0.703125 C 2.757812 -1.253906 2.09375 -1.992188 1.59375 -2.921875 C 1.09375 -3.847656 0.84375 -4.875 0.84375 -6 C 0.84375 -7.132812 1.09375 -8.164062 1.59375 -9.09375 C 2.09375 -10.019531 2.757812 -10.757812 3.59375 -11.3125 C 4.425781 -11.863281 5.351562 -12.140625 6.375 -12.140625 Z M 6.375 -0.03125 C 7.613281 -0.03125 8.234375 -2.019531 8.234375 -6 C 8.234375 -9.988281 7.613281 -11.984375 6.375 -11.984375 C 5.113281 -11.984375 4.484375 -9.988281 4.484375 -6 C 4.484375 -2.019531 5.113281 -0.03125 6.375 -0.03125 Z M 6.375 -0.03125 "/></g></g></g></g></g></g></svg>